<svg xmlns="http://www.w3.org/2000/svg"><g class="tsd-no-select"><rect width="22" height="22" x="1" y="1" fill="var(--color-icon-background)" stroke="var(--color-ts-module)" stroke-width="1.5" rx="6"/><text x="50%" y="50%" fill="var(--color-icon-text)" dominant-baseline="central" text-anchor="middle">M</text></g><g class="tsd-no-select"><rect width="22" height="22" x="1" y="1" fill="var(--color-icon-background)" stroke="var(--color-ts-module)" stroke-width="1.5" rx="6"/><text x="50%" y="50%" fill="var(--color-icon-text)" dominant-baseline="central" text-anchor="middle">M</text></g><g class="tsd-no-select"><rect width="22" height="22" x="1" y="1" fill="var(--color-icon-background)" stroke="var(--color-ts-namespace)" stroke-width="1.5" rx="6"/><text x="50%" y="50%" fill="var(--color-icon-text)" dominant-baseline="central" text-anchor="middle">N</text></g><g class="tsd-no-select"><rect width="22" height="22" x="1" y="1" fill="var(--color-icon-background)" stroke="var(--color-ts-enum)" stroke-width="1.5" rx="6"/><text x="50%" y="50%" fill="var(--color-icon-text)" dominant-baseline="central" text-anchor="middle">E</text></g><g class="tsd-no-select"><rect width="22" height="22" x="1" y="1" fill="var(--color-icon-background)" stroke="var(--color-ts-property)" stroke-width="1.5" rx="12"/><text x="50%" y="50%" fill="var(--color-icon-text)" dominant-baseline="central" text-anchor="middle">P</text></g><g class="tsd-no-select"><rect width="22" height="22" x="1" y="1" fill="var(--color-icon-background)" stroke="var(--color-ts-variable)" stroke-width="1.5" rx="6"/><text x="50%" y="50%" fill="var(--color-icon-text)" dominant-baseline="central" text-anchor="middle">V</text></g><g class="tsd-no-select"><rect width="22" height="22" x="1" y="1" fill="var(--color-icon-background)" stroke="var(--color-ts-function)" stroke-width="1.5" rx="6"/><text x="50%" y="50%" fill="var(--color-icon-text)" dominant-baseline="central" text-anchor="middle">F</text></g><g class="tsd-no-select"><rect width="22" height="22" x="1" y="1" fill="var(--color-icon-background)" stroke="var(--color-ts-class)" stroke-width="1.5" rx="6"/><text x="50%" y="50%" fill="var(--color-icon-text)" dominant-baseline="central" text-anchor="middle">C</text></g><g class="tsd-no-select"><rect width="22" height="22" x="1" y="1" fill="var(--color-icon-background)" stroke="var(--color-ts-interface)" stroke-width="1.5" rx="6"/><text x="50%" y="50%" fill="var(--color-icon-text)" dominant-baseline="central" text-anchor="middle">I</text></g><g class="tsd-no-select"><rect width="22" height="22" x="1" y="1" fill="var(--color-icon-background)" stroke="var(--color-ts-constructor)" stroke-width="1.5" rx="12"/><text x="50%" y="50%" fill="var(--color-icon-text)" dominant-baseline="central" text-anchor="middle">C</text></g><g class="tsd-no-select"><rect width="22" height="22" x="1" y="1" fill="var(--color-icon-background)" stroke="var(--color-ts-property)" stroke-width="1.5" rx="12"/><text x="50%" y="50%" fill="var(--color-icon-text)" dominant-baseline="central" text-anchor="middle">P</text></g><g class="tsd-no-select"><rect width="22" height="22" x="1" y="1" fill="var(--color-icon-background)" stroke="var(--color-ts-method)" stroke-width="1.5" rx="12"/><text x="50%" y="50%" fill="var(--color-icon-text)" dominant-baseline="central" text-anchor="middle">M</text></g><g class="tsd-no-select"><rect width="22" height="22" x="1" y="1" fill="var(--color-icon-background)" stroke="var(--color-ts-function)" stroke-width="1.5" rx="6"/><text x="50%" y="50%" fill="var(--color-icon-text)" dominant-baseline="central" text-anchor="middle">F</text></g><g class="tsd-no-select"><rect width="22" height="22" x="1" y="1" fill="var(--color-icon-background)" stroke="var(--color-ts-property)" stroke-width="1.5" rx="12"/><text x="50%" y="50%" fill="var(--color-icon-text)" dominant-baseline="central" text-anchor="middle">P</text></g><g class="tsd-no-select"><rect width="22" height="22" x="1" y="1" fill="var(--color-icon-background)" stroke="var(--color-ts-constructor)" stroke-width="1.5" rx="12"/><text x="50%" y="50%" fill="var(--color-icon-text)" dominant-baseline="central" text-anchor="middle">C</text></g><g class="tsd-no-select"><rect width="22" height="22" x="1" y="1" fill="var(--color-icon-background)" stroke="var(--color-ts-property)" stroke-width="1.5" rx="12"/><text x="50%" y="50%" fill="var(--color-icon-text)" dominant-baseline="central" text-anchor="middle">P</text></g><g class="tsd-no-select"><rect width="22" height="22" x="1" y="1" fill="var(--color-icon-background)" stroke="var(--color-ts-type-alias)" stroke-width="1.5" rx="6"/><text x="50%" y="50%" fill="var(--color-icon-text)" dominant-baseline="central" text-anchor="middle">T</text></g><g class="tsd-no-select"><rect width="22" height="22" x="1" y="1" fill="var(--color-icon-background)" stroke="var(--color-ts-type-alias)" stroke-width="1.5" rx="6"/><text x="50%" y="50%" fill="var(--color-icon-text)" dominant-baseline="central" text-anchor="middle">T</text></g><g class="tsd-no-select"><rect width="22" height="22" x="1" y="1" fill="var(--color-icon-background)" stroke="var(--color-ts-accessor)" stroke-width="1.5" rx="12"/><text x="50%" y="50%" fill="var(--color-icon-text)" dominant-baseline="central" text-anchor="middle">A</text></g><g class="tsd-no-select"><rect width="22" height="22" x="1" y="1" fill="var(--color-icon-background)" stroke="var(--color-ts-accessor)" stroke-width="1.5" rx="12"/><text x="50%" y="50%" fill="var(--color-icon-text)" dominant-baseline="central" text-anchor="middle">A</text></g><g class="tsd-no-select"><rect width="22" height="22" x="1" y="1" fill="var(--color-icon-background)" stroke="var(--color-ts-accessor)" stroke-width="1.5" rx="12"/><text x="50%" y="50%" fill="var(--color-icon-text)" dominant-baseline="central" text-anchor="middle">A</text></g><g class="tsd-no-select"><rect width="22" height="22" x="1" y="1" fill="var(--color-icon-background)" stroke="var(--color-ts-type-alias)" stroke-width="1.5" rx="6"/><text x="50%" y="50%" fill="var(--color-icon-text)" dominant-baseline="central" text-anchor="middle">T</text></g><g class="tsd-no-select"><rect width="22" height="22" x="1" y="1" fill="var(--color-icon-background)" stroke="var(--color-ts-reference)" stroke-width="1.5" rx="12"/><text x="50%" y="50%" fill="var(--color-icon-text)" dominant-baseline="central" text-anchor="middle">R</text></g><g stroke-width="1.5" class="tsd-no-select"><rect width="22" height="22" x="1" y="1" fill="var(--color-icon-background)" stroke="var(--color-document)" rx="6"/><path fill="none" stroke="var(--color-icon-text)" d="M6 5v14h12v-9l-5-5zm3 4h4m-4 3h6m-6 3h6"/></g><g stroke-width="1.5" class="tsd-no-select"><rect width="22" height="22" x="1" y="1" fill="var(--color-icon-background)" stroke="var(--color-document)" rx="6"/><path fill="none" stroke="var(--color-icon-text)" d="M5 5h5l2 3h7v10H5z"/></g><path fill="var(--color-icon-text)" d="M4.939 8.531 12 15.591l7.061-7.06-2.122-2.122L12 11.349l-4.939-4.94z" class="tsd-no-select"/><path fill="var(--color-icon-text)" d="M1.5 5.51 8 11.66l6.5-6.15-1.953-1.85L8 7.966 3.453 3.66z" class="tsd-no-select"/><g fill="none" class="tsd-no-select"><rect width="30" height="30" x="1" y="1" class="tsd-checkbox-background" rx="6"/><path d="m8.354 16.821 4.86 4.929 11.432-11.5" class="tsd-checkbox-checkmark"/></g><path fill="var(--color-icon-text)" d="M1 3h14v2H1zm0 4h14v2H1zm0 4h14v2H1z" class="tsd-no-select"/><path fill="var(--color-icon-text)" d="m15.782 13.833-3.115-3.115a.75.75 0 0 0-.532-.219h-.51a6.47 6.47 0 0 0 1.376-4c0-3.59-2.91-6.499-6.5-6.499a6.499 6.499 0 1 0 0 12.999 6.47 6.47 0 0 0 4-1.375v.51c0 .2.078.39.219.53l3.115 3.116a.747.747 0 0 0 1.06 0l.884-.885a.753.753 0 0 0 .003-1.062M6.5 10.499c-2.21 0-4-1.787-4-4 0-2.209 1.788-4 4-4 2.21 0 4 1.788 4 4 0 2.21-1.787 4-4 4" class="tsd-no-select"/><g fill="none" stroke="currentColor" stroke-linecap="round" stroke-linejoin="round" stroke-width="2" class="tsd-no-select"><path stroke="none" d="M0 0h24v24H0z"/><path d="M10 14a3.5 3.5 0 0 0 5 0l4-4a3.5 3.5 0 0 0-5-5l-.5.5"/><path d="M14 10a3.5 3.5 0 0 0-5 0l-4 4a3.5 3.5 0 0 0 5 5l.5-.5"/></g><path fill="var(--color-alert-note)" d="M0 8a8 8 0 1 1 16 0A8 8 0 0 1 0 8m8-6.5a6.5 6.5 0 1 0 0 13 6.5 6.5 0 0 0 0-13M6.5 7.75A.75.75 0 0 1 7.25 7h1a.75.75 0 0 1 .75.75v2.75h.25a.75.75 0 0 1 0 1.5h-2a.75.75 0 0 1 0-1.5h.25v-2h-.25a.75.75 0 0 1-.75-.75M8 6a1 1 0 1 1 0-2 1 1 0 0 1 0 2" class="tsd-no-select"/><path fill="var(--color-alert-tip)" d="M8 1.5c-2.363 0-4 1.69-4 3.75 0 .984.424 1.625.984 2.304l.214.253c.223.264.47.556.673.848.284.411.537.896.621 1.49a.75.75 0 0 1-1.484.211c-.04-.282-.163-.547-.37-.847a9 9 0 0 0-.542-.68l-.268-.32C3.201 7.75 2.5 6.766 2.5 5.25 2.5 2.31 4.863 0 8 0s5.5 2.31 5.5 5.25c0 1.516-.701 2.5-1.328 3.259q-.142.172-.268.319c-.207.245-.383.453-.541.681-.208.3-.33.565-.37.847a.751.751 0 0 1-1.485-.212c.084-.593.337-1.078.621-1.489.203-.292.45-.584.673-.848l.213-.253c.561-.679.985-1.32.985-2.304 0-2.06-1.637-3.75-4-3.75M5.75 12h4.5a.75.75 0 0 1 0 1.5h-4.5a.75.75 0 0 1 0-1.5M6 15.25a.75.75 0 0 1 .75-.75h2.5a.75.75 0 0 1 0 1.5h-2.5a.75.75 0 0 1-.75-.75" class="tsd-no-select"/><path fill="var(--color-alert-important)" d="M0 1.75C0 .784.784 0 1.75 0h12.5C15.216 0 16 .784 16 1.75v9.5A1.75 1.75 0 0 1 14.25 13H8.06l-2.573 2.573A1.458 1.458 0 0 1 3 14.543V13H1.75A1.75 1.75 0 0 1 0 11.25Zm1.75-.25a.25.25 0 0 0-.25.25v9.5c0 .138.112.25.25.25h2a.75.75 0 0 1 .75.75v2.19l2.72-2.72a.75.75 0 0 1 .53-.22h6.5a.25.25 0 0 0 .25-.25v-9.5a.25.25 0 0 0-.25-.25Zm7 2.25v2.5a.75.75 0 0 1-1.5 0v-2.5a.75.75 0 0 1 1.5 0M9 9a1 1 0 1 1-2 0 1 1 0 0 1 2 0" class="tsd-no-select"/><path fill="var(--color-alert-warning)" d="M6.457 1.047c.659-1.234 2.427-1.234 3.086 0l6.082 11.378A1.75 1.75 0 0 1 14.082 15H1.918a1.75 1.75 0 0 1-1.543-2.575Zm1.763.707a.25.25 0 0 0-.44 0L1.698 13.132a.25.25 0 0 0 .22.368h12.164a.25.25 0 0 0 .22-.368Zm.53 3.996v2.5a.75.75 0 0 1-1.5 0v-2.5a.75.75 0 0 1 1.5 0M9 11a1 1 0 1 1-2 0 1 1 0 0 1 2 0" class="tsd-no-select"/><path fill="var(--color-alert-caution)" d="M4.47.22A.75.75 0 0 1 5 0h6c.199 0 .389.079.53.22l4.25 4.25c.141.14.22.331.22.53v6a.75.75 0 0 1-.22.53l-4.25 4.25A.75.75 0 0 1 11 16H5a.75.75 0 0 1-.53-.22L.22 11.53A.75.75 0 0 1 0 11V5c0-.199.079-.389.22-.53Zm.84 1.28L1.5 5.31v5.38l3.81 3.81h5.38l3.81-3.81V5.31L10.69 1.5ZM8 4a.75.75 0 0 1 .75.75v3.5a.75.75 0 0 1-1.5 0v-3.5A.75.75 0 0 1 8 4m0 8a1 1 0 1 1 0-2 1 1 0 0 1 0 2" class="tsd-no-select"/></svg>